<?xml version="1.0" encoding="UTF-8" standalone="no"?>
<!-- Created with Inkscape (http://www.inkscape.org/) -->

<svg
   version="1.1"
   id="svg59"
   width="783.33356"
   height="230.326"
   viewBox="0 0 783.33356 230.326"
   sodipodi:docname="Tridentv2.svg"
   inkscape:export-filename="Tridentv2recolor.svg"
   inkscape:export-xdpi="96"
   inkscape:export-ydpi="96"
   inkscape:version="1.2.2 (732a01da63, 2022-12-09)"
   xmlns:inkscape="http://www.inkscape.org/namespaces/inkscape"
   xmlns:sodipodi="http://sodipodi.sourceforge.net/DTD/sodipodi-0.dtd"
   xmlns="http://www.w3.org/2000/svg"
   xmlns:svg="http://www.w3.org/2000/svg">
  <defs
     id="defs63" />
  <sodipodi:namedview
     id="namedview61"
     pagecolor="#ffffff"
     bordercolor="#000000"
     borderopacity="0.25"
     inkscape:showpageshadow="2"
     inkscape:pageopacity="0.0"
     inkscape:pagecheckerboard="0"
     inkscape:deskcolor="#d1d1d1"
     showgrid="false"
     inkscape:zoom="0.46981479"
     inkscape:cx="110.68191"
     inkscape:cy="163.89437"
     inkscape:window-width="1920"
     inkscape:window-height="1009"
     inkscape:window-x="-8"
     inkscape:window-y="-8"
     inkscape:window-maximized="1"
     inkscape:current-layer="g65" />
  <g
     inkscape:groupmode="layer"
     inkscape:label="Image"
     id="g65"
     transform="translate(-32.525688,-139.3852)">
    <path
       style="fill:#282828;stroke:none;stroke-width:0.363636;fill-opacity:1"
       d="m 137.67743,139.74683 c -10.45563,1.37273 -19.77491,3.51709 -28.72727,9.48764 -4.46655,2.97891 -8.12618,8.304 -12.727274,10.71709 -1.64,0.86 -3.6891,0.60036 -5.45455,0.97527 -2.836,0.60255 -5.69527,1.70146 -8.36364,2.82 -12.91563,5.41564 -23.74436,14.83746 -30.59563,27.11855 -3.67127,6.58073 -5.984,13.95927 -6.79855,21.45454 -0.37636,3.46364 0.55891,8.42473 -0.58691,11.63637 -1.3589,3.808 -4.9589,7.36727 -6.644,11.27273 -5.012,11.61491 -6.46581,24.25636 -4.24218,36.72727 1.67164,9.37455 5.89928,17.88873 11.58546,25.45455 2.27309,3.02436 6.04218,5.43672 7.83163,8.72727 1.83128,3.368 1.74146,8.59927 3.19964,12.36364 4.02327,10.38545 10.47164,18.88581 18.97782,26.02254 8.56109,7.18109 18.84109,11.15564 29.818184,12.73018 3.64727,0.52364 8.61018,-0.52727 12,0.61819 1.65818,0.56363 2.92436,2.18545 4.36363,3.13818 2.32801,1.53818 5.0731,2.78545 7.63637,3.88 11.13709,4.76363 23.01127,5.73818 34.90909,4.05091 9.55345,-1.35273 18.56946,-5.68364 26.18182,-11.48728 3.08836,-2.35636 5.72545,-6.21818 9.09091,-8.048 2.76582,-1.504 7.092,-1.424 10.18182,-2.44727 7.22581,-2.39345 14.66581,-6.344 20.36363,-11.42982 9.71964,-8.67491 17.18182,-20.14836 19.70764,-33.02763 1.076,-5.48655 0.30873,-11.39855 1.44291,-16.72728 0.47636,-2.23745 2.87345,-4.18509 3.99054,-6.18182 2.47019,-4.41454 4.5691,-9.28472 5.86437,-14.18181 4.04654,-15.29673 2.45782,-32.80619 -5.71564,-46.54546 -2.03636,-3.42291 -4.42618,-6.89927 -7.14036,-9.81818 -1.72655,-1.85673 -4.20473,-3.57128 -5.42655,-5.81818 -1.71345,-3.15164 -1.62872,-8.104 -2.924,-11.63637 -3.30509,-9.01273 -8.59818,-17.06618 -15.61709,-23.604 -8.27709,-7.70945 -18.24727,-13.30291 -29.45454,-15.27454 -2.97855,-0.524 -6.06182,-1.084 -9.09091,-1.12 -2.12,-0.0251 -4.88582,0.48072 -6.9091,-0.21564 -3.62327,-1.24727 -7.27563,-4.696 -10.90909,-6.41091 -8.94291,-4.22146 -19.93781,-6.51782 -29.81818,-5.22073 m 36,12.93673 c -2.23563,0.46255 -4.676,1.96691 -6.90909,2.03745 -2.34727,0.0742 -4.90873,-1.01963 -7.27273,-1.24836 -5.428,-0.52545 -10.92072,0.35746 -16,2.27455 -4.09781,1.54654 -8.01418,3.884 -11.27272,6.81672 -2.14982,1.93455 -3.91819,4.88437 -6.54546,6.11964 -4.35963,-10.39345 -13.68182,4.49345 -15.90618,9.09091 -0.79091,1.63491 -1.15964,4.08618 -3.00291,4.72727 -0.61673,-3.39563 -3.43127,-4.26909 -6.18182,-2.31345 -3.285824,2.33636 -4.564364,6.13527 -7.391274,8.76873 -2.16582,2.01781 -3.10473,-1.052 -3.14873,-2.81891 -0.0182,-0.72546 -0.0138,-1.45928 0.0564,-2.18182 0.12945,-1.33964 0.40618,-2.68073 0.66581,-4 0.39309,-1.99746 0.82837,-3.92 1.58073,-5.81818 9.288004,-23.43019 35.739274,-35.05273 59.873464,-30.69964 5.50981,0.99345 10.96472,2.46218 16,4.97964 2.04909,1.02472 4.41963,2.14836 5.45454,4.26545 m 65.09091,48.36364 c -2.07636,-0.89455 -4.94836,-1.98255 -6.72909,-3.35418 -1.83164,-1.41128 -3.05964,-4.30291 -4.57418,-6.09491 -3.13782,-3.71273 -6.98109,-6.77091 -11.24218,-9.08582 -4.01309,-2.18037 -9.23891,-3.79528 -13.81818,-3.99637 -2.99855,-0.13127 -6.59746,0.70764 -9.45455,-0.0142 3.54982,-10.91709 -12.79455,-6.80182 -18.18182,-4.83818 -1.59273,0.58073 -3.03745,1.312 -4.72727,1.56545 0.24073,-1.12836 1.048,-2.4709 0.75236,-3.6349 -1.22654,-4.83019 -9.10982,-3.056 -12.38873,-2.40146 -2.004,0.4 -5.90327,1.12 -4.19709,-2.32727 1.22546,-2.47673 4.16291,-4.08873 6.37891,-5.57418 7.33709,-4.91928 16.69782,-7.32146 25.45455,-6.48764 24.78254,2.36036 49.412,20.03382 52.72727,46.24364 m -82.18185,-40.36362 c -2.98145,2.14364 -10.56472,10.95273 -2.18182,11.908 1.71746,0.19564 3.76364,-0.32109 5.45455,-0.63527 0,8.17091 -5.01782,14.06109 -10.90909,19.29091 -8.59127,7.62691 -17.93564,14.50109 -26.90909,21.67818 -4.31564,3.45164 -7.15782,8.60327 -11.63637,11.75818 7.74291,-17.94545 30.88691,-30.112 31.47055,-51.27273 0.12582,-4.56 -2.16655,-7.87891 -3.47055,-12 5.26582,-2.45854 15.08582,-8.78582 18.18182,-0.72727 m 5.09091,-4 -3.63636,2.18182 -1.45455,-2.54546 5.09091,0.36364 m -48.36364,58.90909 c -0.0291,-2.68509 2.15346,-6.19491 3.11855,-8.72727 2.83491,-7.43964 6.85527,-15.43782 6.65273,-23.63637 -0.0789,-3.20327 -0.756,-6.90072 -2.09891,-9.81818 -0.532,-1.15527 -2.37455,-2.95527 -1.58218,-4.28072 1.90218,-3.18182 4.61127,2.6149 7.00072,2.39272 2.81019,-0.26145 5.04473,-4.29527 6.90946,-6.10654 0.89345,-0.86764 2.20582,-2.36291 3.49273,-1.30473 4.30254,3.53709 2.56109,11.86364 1.11309,16.20836 -4.66982,14.00946 -16.48946,23.3771 -24.60619,35.27273 m -19.272724,-52 c -0.89418,2.07527 -2.02691,5.07455 -3.50873,6.77127 -3.252,3.724 -7.97273,5.97419 -11.23127,9.956 -6.81673,8.32873 -8.25891,18.37346 -7.44182,28.72728 -1.39418,-0.0713 -3.00582,-0.83528 -4.36218,-0.38655 -2.65818,0.87927 -3.244,4.15346 -3.27273,6.56837 -0.076,6.36509 3.096,11.064 3.99855,17.09091 -1.03091,-0.23273 -2.20582,-0.96982 -3.27237,-0.852 -6.61054,0.732 -2.18654,11.93018 -2.23636,15.39054 -0.0287,2.00436 -1.83964,1.92182 -3.21709,1.09455 -2.44546,-1.46873 -4.13782,-4.54582 -5.61018,-6.90582 -4.568,-7.32364 -6.64618,-15.81491 -6.06037,-24.36364 1.64946,-24.064 20.18509,-51.03345 46.21455,-53.09091 m 73.818184,8.36364 c -0.31673,0.81054 -0.85527,1.67345 -0.96109,2.54618 -0.84836,6.99964 10.04836,1.31673 12.59745,0.72654 1.67637,5.68364 -3.98872,11.43673 -8.36363,14.15782 -12.54109,7.80109 -26.97782,12.36582 -40,19.29673 2.53127,-3.10945 6.60982,-5.54654 9.81818,-7.95382 9.45491,-7.09491 21.45454,-16.232 21.45454,-29.13709 l 5.45455,0.36364 m -50.54546,-0.36364 2.9091,7.63636 h -0.36364 c -0.968,-2.24363 -2.232,-4.19563 -4.36364,-5.45454 l 1.09091,-2.18182 h 0.72727 m 73.45455,3.27273 c -0.204,1.38836 -0.95309,2.97382 -0.452,4.36218 1.45673,4.036 10.41091,2.39673 13.90655,2.54691 -0.32255,7.04327 -6.43273,11.63818 -12.36364,14.18145 -12.24109,5.24982 -27.216,5.50655 -40.36364,6.54582 v -0.36363 c 3.09455,-1.05382 6.09964,-2.56437 9.09091,-3.88764 10.41018,-4.60618 25.96582,-11.00982 26.54546,-24.476 l 3.63636,1.09091 m -5.81818,-0.72727 -3.27273,8 h -0.36363 l 1.09091,-7.63637 2.54545,-0.36363 m -96.363644,1.45454 -0.72727,4 -3.27273,-0.72727 4,-3.27273 m 15.272734,57.45455 h -0.36364 c 0.48364,-11.26182 3.90073,-22.47673 2.28037,-33.81818 -0.69128,-4.83891 -2.11855,-10.0971 -6.280374,-13.09091 0.590914,-2.10473 2.228004,-3.5691 4.363644,-4 0.336,3.01418 3.236,4.71163 5.69854,2.40218 2.21346,-2.07637 2.96037,-5.97491 4.48328,-8.584 5.408,2.94 5.028,11.24982 3.87272,16.36363 -1.99781,8.84437 -5.67745,17.42037 -9.03636,25.81819 -1.92254,4.80691 -4.32182,9.73709 -5.01818,14.90909 M 87.495606,181.77447 c -0.56327,3.03345 -0.75382,13.04691 5.09091,10.99709 2.21491,-0.77673 3.78727,-3.36582 5.09091,-5.17891 5.678914,3.71418 6.328004,12.72291 6.176364,18.90909 -0.304,12.41564 -3.11381,24.704 -3.961814,37.09091 -0.36582,5.33964 0.330914,10.668 0.330914,16 -2.745824,-4.49563 -2.890554,-11.94909 -3.304004,-17.09091 -0.8571,-10.66581 -1.09928,-22.01091 -5.3771,-32 -1.96363,-4.58618 -4.63236,-8.93818 -8.77345,-11.84 -1.40145,-0.98218 -6.80909,-2.24218 -7.09382,-3.87927 -0.55709,-3.19745 3.85091,-12.20546 6.79346,-13.46546 1.58945,-0.68036 3.48763,-0.0309 5.02763,0.45746 m 133.090914,12.72727 c -3.04145,-0.57309 -13.18509,-0.89454 -11.00109,5.09091 0.80946,2.21818 3.35418,3.77637 5.18291,5.09091 -4.27054,6.04509 -14.33563,6.71927 -21.09091,5.92218 -17.05418,-2.01236 -33.76836,-3.37672 -50.90909,-3.37672 v -0.36364 c 7.54873,-1.55818 14.86327,-2.84036 22.54546,-3.57455 9.12181,-0.87163 17.93345,-1.22 26.54545,-4.79345 6.58255,-2.73127 14.18618,-8.15164 14.54546,-15.99564 6.61818,0.28873 16.312,4.42 14.18181,12 m 3.27273,-2.90909 2.90909,4 -4,-0.72727 1.09091,-3.27273 m 25.81818,89.45455 c -0.32981,-2.44691 -1.96181,-4.87709 -2.03745,-7.27273 -0.0771,-2.44582 1.01236,-5.16582 1.24836,-7.63636 0.49491,-5.18 -0.33672,-10.81309 -2.28472,-15.63637 -1.62837,-4.032 -3.89382,-8.03672 -6.80655,-11.27272 -1.95018,-2.16728 -4.87564,-3.88546 -6.11964,-6.54546 9.87273,-4.91091 -4.18036,-13.53054 -9.09091,-15.90582 -1.63491,-0.79127 -4.08618,-1.16 -4.72727,-3.00327 3.31309,-0.66909 4.192,-3.48618 2.30946,-6.18182 -2.31419,-3.31418 -6.07782,-4.62327 -8.79528,-7.39091 -2.02872,-2.06618 0.62837,-3.09418 2.48582,-3.14909 0.84473,-0.0247 1.704,-0.024 2.54546,0.0564 28.95272,2.76654 45.24945,34.83891 40.63636,61.39272 -1.22,7.02255 -3.38473,17.95855 -9.36364,22.54546 M 95.495606,250.86538 h -0.36363 c -2.61782,-9.49491 -8.22146,-21.48618 -14.97237,-28.71309 -2.284,-2.44509 -5.54036,-4.79491 -8.664,-6.02691 -1.04436,-0.412 -3.9789,-0.51236 -4.3469,-1.73891 -1.09019,-3.63527 5.77381,-1.50873 7.1909,-4.25382 1.44837,-2.80618 0.29091,-8.78327 0.42873,-11.99454 6.95527,0.31854 11.10618,5.93672 13.90691,11.63636 5.888,11.98218 5.78509,27.98946 6.82036,41.09091 m 55.272734,-48.36364 -0.36364,0.36364 0.36364,-0.36364 m 118.90909,1.45455 v 12 l 27.27273,-1.09091 -1.09091,69.09091 h 12.72728 l -0.72728,-69.09091 27.27273,1.09091 v -12 c -21.79455,0.93636 -43.66,0.93636 -65.45455,0 m 311.63637,0.72727 c 2.52727,10.59055 1.09091,22.63382 1.09091,33.45455 0,15.08691 1.68,31.31236 -1.09091,46.18182 l 54.90909,0.36363 V 273.0472 l -42.90909,0.72727 v -26.18182 l 37.45455,0.72728 v -11.63637 l -37.45455,0.72727 v -22.54545 c 14.05455,0 28.23273,-0.67346 42.18182,1.09091 v -12 l -36,0.72727 H 581.3138 m 169.45455,-0.72727 v 12 c 8.82182,-1.63855 17.97455,-1.09091 26.90909,-1.09091 v 42.18182 c 0,8.97054 0.62182,18.07418 -1.09091,26.90909 h 13.09091 l -1.09091,-69.09091 c 9.05455,0 18.33818,-0.57382 27.27273,1.09091 v -12 c -21.32727,1.68327 -43.76364,1.68327 -65.09091,0 m -393.09091,0.36363 1.07636,13.09091 0.0109,53.81819 -1.08727,12.72727 h 12.72727 l -1.09091,-34.54546 c 6.44727,0 16.24,-1.82581 22.18182,0.85528 3.89818,1.75854 6.24727,5.65345 8.09091,9.32654 3.85818,7.70146 7.4,15.87491 9,24.36364 h 14.54545 c -5.56727,-13.30145 -12.11636,-26.79127 -20.36364,-38.54546 16.28001,-2.90181 17.55273,-28.44145 5.45455,-36.59636 -4.35273,-2.93382 -9.14545,-3.34982 -14.18182,-3.82909 -11.90182,-1.13273 -24.61818,1.51527 -36.36363,-0.66546 m 131.27272,0 v 80.00001 c 6.88728,-0.0189 13.81455,-0.36364 20.72728,-0.36364 9.78909,0 19.62909,0.30327 28.36363,-4.892 20.91273,-12.44073 23.6691,-51.65346 4.36364,-66.86473 -15.70545,-12.37454 -35.61818,-4.56836 -53.45455,-7.87964 m 173.81819,0.36364 c 1.13091,26.34073 2.08,52.92909 0,79.27273 h 12.72727 l -1.08727,-15.27273 -0.004,-46.18182 h 0.36364 c 1.67273,5.28219 6.27273,10.32073 9.33454,14.90909 l 19.87637,29.81819 c 2.48364,3.72363 5.00727,7.42472 7.29818,11.27272 0.86182,1.44873 1.59273,4.10073 2.99636,5.08073 1.03273,0.72291 2.93819,0.37382 4.13091,0.37382 h 9.45455 c -2.08364,-26.33564 -1.13091,-52.93273 0,-79.27273 h -12.72727 l 1.09091,62.18182 c -9.24364,-15.09964 -19.51273,-29.632 -29.33455,-44.36364 -2.65091,-3.97709 -5.45455,-7.89163 -7.90182,-12 -0.92,-1.55091 -1.71273,-4.45163 -3.26909,-5.44436 -2.68727,-1.71346 -9.77818,-0.37382 -12.94909,-0.37382 m -215.63637,0.36364 c 2.06909,26.22582 1.12727,52.68618 0,78.90909 h 12.72727 c -0.0764,-3.76545 -0.99272,-7.49927 -1.08727,-11.27273 -0.55273,-22.56545 0.12364,-45.16291 1.08727,-67.63636 h -12.72727 m -226.90909,5.81818 c -3.01418,0.336 -4.71164,3.236 -2.40218,5.69854 2.07636,2.21346 5.9749,2.96037 8.584,4.48328 -3.92364,5.52 -11.59964,4.96945 -17.45455,3.63236 -9.21891,-2.10509 -18.09382,-6.25164 -26.90909,-9.60473 -4.11782,-1.56654 -8.27491,-3.82109 -12.72727,-4.20945 1.8789,-0.73346 4.55818,0.15164 6.54545,0.33636 5.58764,0.51964 11.11418,1.58546 16.72727,1.83128 5.92473,0.25927 12.26255,0.22472 17.81819,-2.12255 2.18218,-0.92218 3.828,-3.22691 5.92218,-3.98655 1.97891,-0.71781 3.59672,2.45746 3.896,3.94146 m 111.63636,-3.27273 v 4.72727 l -27.27272,-0.36363 v 44.72727 c 0,7.728 -1.07164,16.44437 0.72727,24 h -5.81818 l 0.36363,-68.72727 -26.90909,0.36363 v -4.72727 h 58.90909 m 253.45455,0 14.54546,0.36364 32.36363,-0.36364 v 4.72727 l -41.81818,-0.36363 v 28.72727 c 12.4,0 25.14909,0.82764 37.45455,-0.72727 v 5.09091 l -14.54546,-0.72727 h -22.90909 v 32.72727 c 13.76364,0 28.99273,1.78873 42.54546,-0.72727 v 4.72727 h -48 c 2.19272,-17.34836 0.72727,-35.60582 0.72727,-53.09091 0,-4.19527 0.33454,-8.55055 -0.0618,-12.72727 -0.21091,-2.224 -1.05454,-5.54 -0.30182,-7.63637 m 227.63637,0 v 4.72727 l -27.27273,-0.36363 0.36364,68.72727 h -5.45455 l 0.36364,-68.72727 -27.27273,0.36363 v -4.72727 h 59.27273 M 392.22254,245.0472 c 3.05818,1.31527 6.45455,1.52836 9.08727,3.756 3.11273,2.63745 4.85091,6.852 6.64,10.42582 3.38909,6.77818 7.62909,14.16872 9.72728,21.45454 h -6.54546 c -0.51273,-3.46872 -2.04727,-6.93963 -3.34545,-10.18182 -3.28,-8.19563 -6.92,-20.00618 -15.92728,-23.46654 -7.21818,-2.77273 -17.79636,-0.89709 -25.45454,-0.89709 l 0.36363,34.54545 h -5.45454 v -72.72727 h 25.81818 c 6,0 12.31273,-0.29237 17.81818,2.53854 9.38909,4.82837 11.19273,20.11346 3.96728,27.6291 -4.57091,4.75345 -10.65455,5.36 -16.69455,6.92327 m 64.36364,-37.09091 c -2.32728,18.40509 -0.72728,37.81273 -0.72728,56.36364 0,3.58945 -0.31272,7.34691 0.15273,10.90909 0.16,1.21672 0.89091,4.17782 0.16727,5.23527 -0.87636,1.28291 -4.55272,0.58109 -5.77454,0.21927 2.65091,-11.13454 0.72727,-24.58654 0.72727,-36 0,-11.636 1.97455,-25.37673 -0.72727,-36.72727 h 6.18182 m 35.63636,73.09091 c 2.70182,-11.35055 0.72727,-25.09127 0.72727,-36.72727 0,-11.528 1.9491,-25.11746 -0.72727,-36.36364 14.16364,0 32.39273,-3.04218 45.09091,4.52836 20.33091,12.12037 19.48364,50.34328 0.36364,63.19928 -8.12364,5.46327 -17.57818,4.99963 -26.90909,4.99963 -6.18909,0 -12.38182,0.36291 -18.54546,0.36364 m 227.27273,-1.81818 h 0.36364 L 718.768,207.95629 h 5.45455 c -0.49819,24.16073 -1.03637,48.57382 0,72.72727 -2.18182,0 -5.8691,0.71673 -7.85819,-0.21927 -1.4,-0.65927 -2.20727,-3.24218 -2.98181,-4.508 -2.35273,-3.83745 -4.96728,-7.52873 -7.46182,-11.27273 -7.58546,-11.37636 -15.08364,-22.80654 -22.66909,-34.18182 -4.39637,-6.59818 -10.26546,-14.11563 -12.48364,-21.81818 h -0.36364 l 1.08728,15.27273 0.36727,56.72727 h -5.45455 c 1.03637,-24.15345 0.49818,-48.56691 0,-72.72727 2,0 5.76728,-0.72727 7.49455,0.37382 1.44363,0.92036 2.36727,3.64363 3.26182,5.08072 2.37454,3.81928 4.93091,7.52946 7.42545,11.27273 l 21.33455,32 c 4.78182,7.17455 10.24363,14.54764 13.57454,22.54546 m -566.54546,19.63636 0.36364,-3.27273 -8,3.27273 v -0.36363 c 4.36509,-3.12655 7.75381,-5.18 8,-10.9091 -2.54364,1.13382 -7.06291,4.224 -8.09382,6.90946 -0.52546,1.36909 -0.21491,2.94691 -0.63346,4.36327 -5.11745,-0.95018 -11.17527,-0.79382 -16,-2.93491 -7.87491,-3.49491 -14.49054,-11.54109 -19.15163,-18.51963 -1.46146,-2.18837 -3.40546,-4.44473 -4.3611,-6.9091 -1.89563,-4.88654 -1.81563,-10.54254 -1.59236,-15.63636 0.27164,-6.20873 0.54982,-13.42291 2.916,-19.27273 3.76473,-9.30727 16.29164,-19.78836 25.46182,-23.55491 5.82327,-2.392 13.52109,-2.05636 19.63636,-1.47418 4.80546,0.45709 10.81491,0.88836 15.27273,2.83491 7.88909,3.44545 14.49964,11.59273 19.15164,18.55782 1.51709,2.27164 3.62182,4.66036 4.48909,7.27273 2.72545,8.21163 1.944,18.20618 0.28654,26.54545 -0.51018,2.56655 -0.70618,5.60037 -1.77127,8 -2.26545,5.10437 -6.77527,9.53127 -10.88327,13.14727 -7.41564,6.52801 -14.89273,11.93673 -25.09091,11.94364 m 213.45455,-87.27273 v 30.90909 h 19.63636 c 4.92,0 10.10909,0.0902 14.54546,-2.36909 8.75636,-4.85491 11.02545,-20.10691 1.81818,-25.82436 -4.41818,-2.74218 -9.88,-2.71564 -14.90909,-2.71564 h -21.09091 m 131.27273,0.36364 v 65.09091 c 11.76,0 26.91636,2.44691 37.09091,-4.74291 16.41454,-11.59855 17.11272,-45.67491 -0.36364,-56.62837 -10.14182,-6.35563 -25.29091,-3.71963 -36.72727,-3.71963 m -128.36364,27.27273 v -24.36364 h 19.63636 c 4.09455,0 8.41455,-0.19127 12,2.16945 6.66909,4.39673 4.93818,16.42655 -1.45454,20.12837 -3.99273,2.31091 -8.28728,2.06582 -12.72728,2.06582 h -17.45454 m 131.27273,34.54545 v -58.90909 c 10.47636,0 23.95636,-2.192 33.09091,4.03382 14.99273,10.21891 13.48727,41.26364 -1.09091,51.108 -8.84364,5.97236 -21.88364,3.76727 -32,3.76727 m -353.81819,-57.09091 -0.73273,16 -1.07127,21.45455 -0.74145,16.72727 c -3.44037,-3.412 -7.46473,-5.98036 -12,-7.704 -1.81855,-0.69127 -5.72,-0.724 -7.05346,-2.02036 -1.48727,-1.44582 -0.81563,-5.45164 -1.05018,-7.36655 -0.88218,-7.20764 -1.33091,-14.91964 -1.35091,-22.18182 -4.52073,2.41491 -10.32764,10.42473 -12.72727,14.90909 l 9.09091,-6.90909 c -0.29564,6.88255 -0.69709,13.82837 -0.72764,20.72728 -0.009,1.976 -0.80327,5.768 0.37418,7.47854 0.73746,1.072 2.49127,0.90291 3.62618,1.10909 2.60873,0.47346 5.16728,1.39564 7.63637,2.34509 3.14073,1.20728 10.77745,5.01128 11.95891,8.34546 0.48763,1.37636 -1.23818,2.496 -0.58182,3.87491 1.41091,2.964 3.81236,2.63236 3.89564,6.66509 2.53054,-1.45564 7.68472,-4.41455 9.07381,-7.01818 0.80255,-1.50473 -1.088,-2.73891 -0.17745,-4.25455 2.028,-3.37491 7.004,-6.33236 10.37636,-8.204 2.60728,-1.44691 5.77491,-2.24982 8.72728,-2.59854 1.05563,-0.12473 3.19018,0.56945 3.78072,-0.59128 0.92837,-1.82509 0.21928,-5.49091 0.21928,-7.51527 -2e-5,-6.784 -0.72693,-13.57236 -0.72693,-20.36364 l 7.63637,5.45455 c -1.71673,-4.43164 -7.86546,-10.57055 -11.63637,-13.45455 -7.2e-4,7.12109 -0.572,14.35273 -1.05854,21.45455 -0.13818,2.02254 0.77891,6.27491 -0.90255,7.78073 -1.41891,1.27054 -4.93054,0.91709 -6.76618,1.56436 -4.17382,1.472 -8.44145,3.96945 -11.63636,7.01855 l -4.72728,-52.72728 h -0.72727 m -71.636364,4 v 0.36364 l -7.63637,-1.09091 -0.36363,-2.54546 8,3.27273 m 102.909094,-3.27273 c 7.13964,4.38546 13.60036,9.23346 20,14.64546 8.60364,7.27527 18.58654,16.19927 30.54545,16.77345 4.80291,0.23055 8.02437,-2.30291 12.36364,-3.41891 2.36473,5.488 8.68982,14.73601 0.72727,18.18182 -2.08945,-2.90618 -9.85563,-10.28618 -11.84218,-2.90909 -0.50545,1.87782 0.22109,4.31237 0.56946,6.18182 -8.17091,0 -14.0611,-5.01782 -19.29091,-10.90909 -7.63309,-8.59855 -14.49637,-17.92982 -21.67819,-26.90909 -2.25709,-2.82182 -5.02618,-5.19491 -7.75818,-7.53782 -1.31091,-1.12436 -3.21745,-2.37018 -3.63636,-4.09855 m 9.09091,2.54546 c 8.63127,5.01854 21.55854,9.88545 31.63636,10.13491 3.17455,0.0785 7.34,-0.71237 10.18182,-2.132 1.13782,-0.56873 2.91927,-2.40473 4.26218,-1.55309 3.28327,2.08109 -3.11054,4.64691 -2.41527,7.36836 0.84727,3.31746 6.16945,6.43164 8.33491,9.09091 v 0.36364 c -5.58764,4.57927 -12.66618,3.36072 -18.90909,1.07163 -12.97164,-4.75709 -22.44109,-16.06945 -33.45455,-23.98072 l 0.36364,-0.36364 m -85.81819,50.54545 c -3.023274,-2.31381 -5.196004,-6.088 -7.509454,-9.0909 -7.26073,-9.42328 -16.21455,-21.45455 -29.21782,-21.45455 l 0.36364,-5.45455 c 0.82,0.29091 1.68109,0.79419 2.54618,0.91891 7.00909,1.01055 1.40437,-10.07163 0.72655,-12.55527 5.816,-1.71527 11.35236,3.96 14.16218,8.36364 7.79418,12.21418 12.13345,26.50545 18.928724,39.27272 m 129.45455,-46.90909 v 0.72728 l -7.63636,2.90909 v -0.36364 l 5.45454,-4.36364 2.18182,1.09091 m -185.454544,4.72728 c 3.92763,9.12618 -0.156,18.64072 2.69963,28.36363 1.43637,4.89018 4.24109,9.64218 7.58618,13.45455 1.93637,2.20691 4.82364,3.85782 6.07782,6.54545 -10.20545,4.28109 4.43455,13.75564 9.09091,15.88764 1.69055,0.77418 4.07382,1.11345 4.72727,3.02145 -3.12618,0.568 -4.244,3.07891 -2.54727,5.81819 2.23091,3.60254 6.31709,4.75091 9.00255,7.71272 1.82618,2.01382 -0.63855,3.09273 -2.45528,3.18182 -5.27818,0.25891 -10.52654,-1.63091 -15.27272,-3.668 -22.31855,-9.57927 -31.93746,-36.92182 -27.56473,-59.59018 1.33782,-6.93637 3.44582,-15.60364 8.65564,-20.72727 m 148.727274,9.81818 c 8.49891,11.82254 20.40109,31.27091 36.72727,31.27273 l -0.36363,5.45454 c -0.81891,-0.32 -1.66873,-0.83818 -2.54619,-0.96618 -7.11818,-1.03855 -1.43272,10.01564 -0.72654,12.60254 -4.78073,1.41019 -9.36146,-2.47781 -12.29673,-5.81818 -7.23309,-8.23127 -10.43127,-20.42218 -15.06873,-30.18182 -1.51381,-3.18545 -5.62618,-9.02436 -5.72545,-12.36363 m -144.000004,2.54545 2.18182,3.27273 -2.90909,1.45454 0.72727,-4.72727 m 67.636364,51.27273 C 99.865426,284.2712 87.218886,260.39193 66.041066,260.38502 c -4.34946,-10e-4 -7.72509,2.148 -11.63636,3.57127 -1.57819,-3.66255 -8.93273,-15.75673 -1.82328,-17.68109 1.61818,-0.43818 2.47018,1.388 3.38691,2.37563 3.15709,3.4011 10.30727,4.484 9.604,-2.14909 -0.14218,-1.33854 -0.37563,-2.67745 -0.62218,-4 8.51236,0 14.63454,5.41928 20,11.63637 7.30654,8.46691 13.96182,17.50218 21.019634,26.18182 3.4771,4.276 8.55237,7.15672 11.70764,11.63636 m 77.81818,-42.18182 c 1.58146,7.66582 2.82946,15.11018 3.57455,22.90909 0.85527,8.94873 1.12545,17.75928 4.74291,26.18182 2.824,6.576 8.15236,14.184 16.04618,14.54546 -0.53127,6.50327 -4.40182,16.31709 -12,14.18182 0.37491,-2.96619 0.35855,-14.57819 -5.81818,-10.68982 -0.81164,0.51127 -1.49927,1.26691 -2.14909,1.96291 -0.84509,0.90545 -1.56,1.86218 -2.21455,2.90872 -4.85127,-3.42654 -6.03891,-10.38545 -6.17636,-16 -0.32582,-13.29163 2.67527,-26.78582 3.93273,-40 0.45563,-4.78509 -1.77673,-11.61891 0.0618,-16 m -99.757454,1.69709 -0.12146,0.24218 0.12146,-0.24218 m 104.000004,6.18182 -0.12145,0.24218 0.12145,-0.24218 m 0.48473,0.84836 c 0.85854,3.11346 2.57418,6.11382 3.84472,9.09091 4.4851,10.51128 10.92655,25.49237 24.15528,26.54546 l -0.72728,3.63636 c -1.3909,-0.20436 -2.97163,-0.95054 -4.36327,-0.452 -4.04254,1.44873 -2.51673,10.41055 -2.54582,13.90655 -17.01927,-1.392 -17.55163,-25.076 -19.01309,-37.45455 -0.47636,-4.03563 -2.70254,-11.50327 -1.35054,-15.27273 m 1.09091,87.27273 c 0.87854,-2.10981 1.864,-4.94981 3.29963,-6.72909 1.32037,-1.63672 3.79309,-2.64472 5.42764,-3.98545 3.62909,-2.976 6.85382,-6.64037 9.14109,-10.74 2.50364,-4.48728 4.29127,-9.75637 4.64473,-14.90909 0.20654,-3.01746 -0.75455,-6.59237 0.0324,-9.45455 10.79927,3.51164 6.84109,-12.90218 4.796,-18.18182 -0.65636,-1.69418 -1.36291,-3.26582 -1.52327,-5.09091 8.76727,3.95382 6.53273,-7.836 5.67818,-12.72727 -0.41345,-2.36655 0.56109,-4.02545 3.04873,-2.54218 2.25054,1.34218 3.80436,4.032 5.20218,6.17854 4.428,6.80037 6.43455,14.51128 6.43455,22.54546 0,26.85309 -19.72073,50.70582 -46.18182,55.63636 m -93.09091,-57.09091 v 0.36364 c -10.466194,-2.992 -19.775284,-9.03673 -30.909104,-9.78582 -3.2949,-0.22145 -7.55018,0.51091 -10.54545,1.90364 -1.18473,0.55091 -3.28509,2.61891 -4.62582,1.792 -3.248,-2.00218 3.256,-4.81673 2.22328,-7.728 -1.15673,-3.26073 -5.93746,-6.01891 -8.14291,-8.72728 3.93018,-5.00763 11.83563,-3.84327 17.09091,-2.17127 13.86436,4.41091 23.21454,16.39782 34.909094,24.35309 m 137.81818,-25.09091 -0.36364,5.09091 -2.54545,-3.27272 2.90909,-1.81819 m -144.36364,7.27273 -0.36364,0.36364 0.36364,-0.36364 m 90.18182,5.45455 c -0.51418,11.976 -4.45164,24.00982 -1.94,36 0.51927,2.47854 1.23746,5.11382 2.59855,7.27272 0.78363,1.24291 2.40727,2.39273 2.91527,3.74037 0.74291,1.97018 -2.46727,3.59927 -3.93746,3.896 -0.33018,-2.96218 -3.30072,-4.82655 -5.74036,-2.46255 -2.17782,2.11019 -2.91382,6.02691 -4.44145,8.64437 -4.95128,-3.11673 -5.13019,-10.12182 -4.19528,-15.27273 1.69818,-9.356 6.00146,-18.48327 9.48619,-27.27273 1.83709,-4.63309 2.92909,-10.20364 5.25454,-14.54545 m 528.00001,2.90909 0.36364,0.36363 -0.36364,-0.36363 m -647.636404,2.90909 v 0.36363 c -2.54946,1.1 -4.83964,4.37019 -7.63637,3.27273 v -0.72727 l 7.63637,-2.90909 m 53.818184,16.36364 v 0.36363 c -11.14037,-0.87927 -22.65091,-4.07563 -33.818184,-2.33091 -4.86764,0.76073 -10.09055,2.10728 -13.09091,6.33091 -2.10473,-0.59091 -3.56909,-2.228 -4,-4.36363 2.98618,-0.33273 4.76,-3.27564 2.444,-5.74037 -2.05564,-2.188 -6.03455,-2.92909 -8.62582,-4.44145 2.868,-5.39891 11.27054,-5.17128 16.36363,-3.95273 9.89528,2.36836 19.205464,6.65891 28.727284,10.15382 3.94254,1.44727 7.79236,3.41382 12,3.98073 m 58.90909,-13.81819 c -7.74,17.93855 -30.94291,30.08982 -31.54218,51.27273 -0.12909,4.56473 2.24072,7.88691 3.54218,12 -3.73964,1.55673 -15.58764,8.78182 -17.66291,1.82218 -0.43418,-1.45527 1.07055,-2.34691 1.99418,-3.18727 2.62691,-2.38945 5.88982,-8.27054 0.396,-9.74982 -0.83163,-0.22363 -1.70691,-0.11345 -2.54545,-0.004 -1.22328,0.16072 -2.43564,0.28654 -3.63637,0.57309 0,-8.37746 5.2,-14.34691 11.27273,-19.69273 8.16691,-7.18982 17.03855,-13.56291 25.45455,-20.46146 4.59927,-3.77018 7.91818,-9.18545 12.72727,-12.57309 m 35.63636,3.63674 7.27273,1.09091 0.36364,2.54545 -8,-3.27273 0.36363,-0.36363 m -111.63636,0.72727 -0.36364,0.36364 0.36364,-0.36364 m 73.45455,4.36364 -0.36364,0.36363 0.36364,-0.36363 m -0.36364,0.72727 c -3.39564,11.87745 -11.46582,23.09273 -9.29637,36 0.64182,3.81818 5.75273,10.14109 0.5691,11.27273 -4.676,-7.88546 -9.40728,0.87382 -13.81819,4.72727 h -0.36363 c -8.98073,-10.95818 2.04145,-27.08946 9.356,-35.63636 1.75818,-2.05455 3.55818,-4.08073 5.26072,-6.18182 2.68073,-3.308 5.16073,-7.32 8.29237,-10.18182 m -29.45455,8 v 0.36364 c -4.10982,0.79709 -8.19018,2.06 -12.36363,2.484 -17.89382,1.81781 -45.520734,0.32945 -51.636374,21.87963 -6.23636,-0.84036 -16.21854,-4.428 -13.81818,-12 5.08291,0.64218 15.76509,-1.34873 8.72582,-7.96727 -0.90182,-0.84764 -1.86218,-1.56036 -2.90764,-2.21455 3.504,-5.79745 12.50218,-6.19163 18.54546,-6.18181 12.454914,0.02 25.060724,2.7589 37.454544,3.93818 5.30873,0.50545 10.68764,-0.30182 16,-0.30182 m 11.63637,-1.45455 -0.36364,0.36364 0.36364,-0.36364 m -0.72728,0.36364 c -2.556,3.332 -6.85345,5.78182 -10.18181,8.32145 -9.15164,6.98291 -20.36364,15.92655 -20.36364,28.40582 l -5.45455,-0.36363 c 0.29273,-0.82437 0.78473,-1.67818 0.92037,-2.54618 1.10109,-7.04073 -10.04873,-1.54255 -12.55673,-0.72655 -1.71673,-5.82036 3.97964,-11.38509 8.36364,-14.23091 12.11091,-7.86218 26.51927,-12.14255 39.27272,-18.86 m 127.63637,16.36364 c 3.23673,0 7.77709,0.80945 10.52945,-1.27637 3.08146,-2.33527 2.99164,-7.93745 -0.35309,-9.99309 -2.36291,-1.452 -6.41563,-1.30509 -9.08545,-1.032 -5.66691,0.57927 -3.63637,10.69055 -3.63637,14.84691 0,1.42073 -0.61454,4.86546 0.87782,5.71346 2.344,1.332 1.66764,-7.04691 1.66764,-8.25891 m 53.09091,-4 h -0.36364 c -1.81454,-3.18182 -6.53309,-3.35819 -8.94763,-0.65891 -2.292,2.56182 -2.40728,7.57782 -0.73709,10.47563 2.01636,3.49855 7.76109,4.36655 9.68472,0.36509 0.26182,0.7011 1.38182,3.43382 2.32728,1.65346 0.65818,-1.24291 0.21818,-3.55455 0.21818,-4.92618 v -11.63637 c -0.004,-5.14109 -2.18182,-2.74109 -2.18182,1.09091 v 3.63637 m 6.29818,-7.98291 c -1.64,1.01454 -0.16,3.776 1.58909,2.79272 1.70182,-0.9589 0.17455,-3.88545 -1.58909,-2.79272 m 32,0 c -1.64,1.01454 -0.16,3.776 1.58909,2.79272 1.70182,-0.9589 0.17455,-3.88545 -1.58909,-2.79272 m 64.24728,7.98291 v -3.63637 c 0,-1.11382 0.30909,-2.82072 -0.21819,-3.84072 -0.63272,-1.21637 -1.93818,-0.40873 -2.21091,0.58945 -1.16727,4.22509 -0.11636,10.13673 -0.11636,14.524 0,1.04691 -0.52364,5.05891 1.42182,4.756 1.36,-0.212 1.12,-2.34182 1.12364,-3.30145 0.007,-2.75746 -0.08,-11.02764 5.08363,-9.22946 3.49455,1.21636 2.07273,7.51127 2.19637,10.32 0.04,0.92036 0.55636,3.03855 1.95636,2.09564 1.20727,-0.81382 0.58182,-4.46109 0.58182,-5.73164 0,-2.08654 0.36727,-4.60836 -0.57091,-6.54364 -2.02909,-4.17854 -6.69818,-2.41963 -9.24727,-0.002 m 52.84363,-7.98291 c -1.64,1.01454 -0.16,3.776 1.58909,2.79272 1.70182,-0.9589 0.17455,-3.88545 -1.58909,-2.79272 m 36.72,0.0469 c -1.27272,0.62109 -0.83636,3.17054 -0.83636,4.29963 v 12.36364 c 0,0.88982 -0.18182,4.49564 1.70909,3.57236 1.27273,-0.62109 0.83636,-3.17054 0.83636,-4.29963 V 309.047 c 0,-0.88982 0.18182,-4.49564 -1.70909,-3.57236 m 101.46182,-0.0469 c -1.64,1.01454 -0.16,3.776 1.58909,2.79272 1.70182,-0.9589 0.17455,-3.88545 -1.58909,-2.79272 m 21.09091,0 c -1.64,1.01454 -0.16,3.776 1.58909,2.79272 1.70182,-0.9589 0.17455,-3.88545 -1.58909,-2.79272 m 70.90909,0 c -1.64,1.01454 -0.16,3.776 1.5891,2.79272 1.70181,-0.9589 0.17454,-3.88545 -1.5891,-2.79272 m 54.50546,-10e-4 c -1.4,0.78218 -1.79273,2.97237 -2.33091,4.348 -1.48,3.76655 -3.00727,7.51491 -4.50909,11.27273 -0.38545,0.96145 -2.12364,4.20145 -0.40727,4.76727 2.04,0.67273 2.61091,-4.31309 3.71636,-5.27527 1.41455,-1.22982 6.02909,-0.82291 7.80364,-0.52909 2.14909,0.35636 2.86909,6.75673 4.98909,5.70036 1.59636,-0.79345 -0.26182,-3.97163 -0.68364,-5.02691 -1.69818,-4.24218 -3.36727,-8.49563 -5.09091,-12.72691 -0.56727,-1.38945 -1.58182,-3.59345 -3.48727,-2.53018 m 13.85091,0.0342 c -1.26546,0.69564 -0.83636,3.13273 -0.83636,4.31382 v 12.72728 c 0.004,0.90836 0.0836,4.36 1.96363,3.168 1.03637,-0.65782 0.58182,-3.22582 0.58182,-4.25891 v -12.36364 c 0,-0.90945 0.28727,-4.68545 -1.70909,-3.58655 m -653.56365,1.04081 -0.36363,0.36363 0.36363,-0.36363 m -0.72727,0.36363 v 0.36364 c -3.14109,0.75309 -6.09455,2.61491 -9.09091,3.83563 -10.284,4.18982 -25.976,11.10037 -26.54545,24.16437 -5.77819,-0.0644 -1.04546,-4.56327 -4.74328,-7.05346 -2.52836,-1.70254 -9.297094,-0.55781 -12.347634,-0.5829 0.32036,-6.99055 5.92181,-11.09928 11.636364,-13.90691 8.06509,-3.96255 16.72764,-4.23273 25.45455,-5.064 5.19381,-0.49455 10.43491,-1.5331 15.63636,-1.75637 m 229.09091,4.36364 c -3.42182,0.012 -3.36363,2.14182 0,2.18182 0,3.01381 -1.06909,8.56945 0.42909,11.23309 0.79273,1.41018 5.66546,2.61345 6.09455,0.32363 0.30182,-1.60254 -3.47273,-0.88581 -4.12364,-2.48727 -0.98182,-2.43309 -0.21818,-6.45782 -0.21818,-9.06945 4.78546,-3.7e-4 4.79636,-2.18182 0,-2.18182 0,-4.72364 -2.18182,-4.72364 -2.18182,0 m 225.45455,0 c -3.42182,0.012 -3.36363,2.14182 0,2.18182 0,3.01381 -1.06909,8.56945 0.42909,11.23309 0.79273,1.41018 5.66546,2.61345 6.09455,0.32363 0.30182,-1.60254 -3.47273,-0.88581 -4.12364,-2.48727 -0.98182,-2.43309 -0.21818,-6.45782 -0.21818,-9.06945 4.78545,-3.7e-4 4.79636,-2.18182 0,-2.18182 0,-4.72364 -2.18182,-4.72364 -2.18182,0 m 68,0 c -3.42182,0.012 -3.36363,2.14182 0,2.18182 0,3.01381 -1.06909,8.56945 0.42909,11.23309 0.79273,1.41018 5.66546,2.61345 6.09455,0.32363 0.30182,-1.60254 -3.47273,-0.88581 -4.12364,-2.48727 -0.98182,-2.43309 -0.21818,-6.45782 -0.21818,-9.06945 4.78546,-3.7e-4 4.79636,-2.18182 0,-2.18182 0,-4.72364 -2.18182,-4.72364 -2.18182,0 m -375.27273,4 c 0,-1.72727 -0.73527,-5.65309 0.37382,-7.05346 0.72618,-0.91672 2.60691,-0.58291 3.62618,-0.58291 1.64764,0 3.67382,-0.3 5.008,0.8851 3.33891,2.96618 -0.22182,6.6589 -3.55345,6.74581 -1.81601,0.0476 -3.63819,0.005 -5.45455,0.005 m 494.18183,-7.63637 3.63636,10.18182 h -7.27273 l 3.63637,-10.18182 m -728.363654,0.72728 c 1.96327,1.14691 5.03382,1.93454 6.61709,3.52691 3.97346,3.99636 6.45564,8.82981 11.20109,12.29527 8.31745,6.07382 17.41964,6.78255 27.272734,6.35964 -0.0716,1.39854 -0.83055,3.00327 -0.34473,4.35818 0.91236,2.544 4.152,3.21382 6.52655,3.27273 6.324,0.15745 11.1309,-3.38473 17.09091,-3.99455 -0.23273,1.03091 -0.96982,2.20582 -0.852,3.27236 0.73672,6.65309 11.92363,2.06691 15.39054,2.21782 2.232,0.0971 1.83309,2.21491 0.86036,3.59527 -2.94727,4.184 -9.01054,6.70582 -13.58072,8.53273 -21.352,8.53455 -47.838914,-2.27054 -60.625464,-20.52727 -3.49563,-4.99127 -6.50618,-10.19782 -8.464,-16 -0.67563,-2.00182 -1.732,-4.82946 -1.09236,-6.90909 m 253.090914,5.09091 c -0.35782,-0.93273 -1.70654,-3.32946 -2.68982,-1.33855 -1.22545,2.48146 -0.22509,7.67164 -0.21927,10.42946 0.002,0.95272 -0.22582,2.6909 0.836,3.20872 1.16145,0.56691 1.61455,-0.92582 1.688,-1.756 0.26873,-3.02545 -0.87345,-6.97345 1.55782,-9.36982 0.87309,-0.86072 5.28727,-1.14327 4.49745,-2.84145 -1.17709,-2.53018 -4.97491,0.25418 -5.67018,1.66764 m 10.18182,5.45454 c 2.01273,0 8.87273,1.07309 10.17127,-0.58291 0.77382,-0.98691 0.14146,-2.79891 -0.324,-3.78072 -1.47054,-3.10146 -5.23018,-4.57637 -8.39273,-3.06437 -6.36509,3.04218 -4.65636,14.34909 2.54546,14.788 1.51127,0.092 7.89382,-1.59163 5.89018,-4.22436 -1.02327,-1.34437 -3.13382,1.56509 -4.07745,1.95163 -3.44946,1.41382 -5.676,-2.14 -5.81273,-5.08727 m 40.72727,-7.80654 c -9.36,2.23054 -4.32363,19.73527 5.05818,14.55091 0.92364,-0.51019 3.56728,-3.164 1.73455,-4.08 -1.24,-0.62146 -2.11636,1.28 -2.86909,1.90545 -1.56364,1.30436 -3.61455,0.77818 -4.93091,-0.61818 -2.52,-2.67164 -1.74182,-10.12982 2.97818,-9.79237 1.52364,0.10873 3.42909,3.32291 4.72364,2.46328 1.09454,-0.72618 -0.0291,-2.45237 -0.63637,-3.08618 -1.49454,-1.55891 -4.04,-1.82328 -6.05818,-1.34291 m 30.18182,2.352 c -0.51273,-1.33273 -2.40364,-3.35237 -2.85454,-0.70582 -0.54546,3.19782 -0.0764,6.91563 -0.0546,10.16036 0.007,0.87782 0.0582,3.65091 1.70909,2.84509 1.06182,-0.51782 0.83273,-2.256 0.83636,-3.20872 0.007,-2.94219 -0.39272,-10.29964 4.72728,-9.32291 4.04363,0.77163 2.31636,7.93745 2.56727,10.77563 0.0909,1.03855 1.11636,2.81237 2.14909,1.33382 1.44727,-2.06982 0.84,-10.59673 -0.60727,-12.56654 -2.12727,-2.88982 -6.79273,-2.21528 -8.47273,0.68909 m 23.27273,9.81818 h 0.36364 c -0.0291,3.32254 -1.30182,7.236 -5.45455,6.50945 -1.05818,-0.18509 -3.54546,-2.21563 -4.45455,-1.17818 -0.84363,0.96509 0.86182,2.13637 1.54546,2.51709 2.12363,1.17746 5.07636,1.17164 7.26909,0.16255 4.76364,-2.19527 3.27636,-10.34255 3.27636,-14.55637 0,-2.26945 0.74546,-5.22654 -2.18181,-5.45454 v 2.18182 c -1.07273,-1.016 -2.14546,-2.06655 -3.63637,-2.40182 -7.04364,-1.58327 -9.52727,8.51054 -5.67636,12.908 2.32727,2.65636 7.33091,2.60364 8.94909,-0.688 m 19.63636,-12.17018 c -9.36,2.23054 -4.32363,19.73527 5.05818,14.55091 0.92364,-0.51019 3.56728,-3.164 1.73455,-4.08 -1.24,-0.62146 -2.11636,1.28 -2.86909,1.90545 -1.56364,1.30436 -3.61455,0.77818 -4.93091,-0.61818 -2.52,-2.67164 -1.74182,-10.12982 2.97818,-9.79237 1.52364,0.10873 3.42909,3.32291 4.72364,2.46328 1.09454,-0.72618 -0.0291,-2.45237 -0.63637,-3.08618 -1.49454,-1.55891 -4.04,-1.82328 -6.05818,-1.34291 m 28,7.80654 c 2.01455,0 8.87273,1.07309 10.17091,-0.58291 0.77455,-0.98654 0.14182,-2.79891 -0.32363,-3.78072 -1.46909,-3.10146 -5.2291,-4.57637 -8.39273,-3.06437 -6.36364,3.04218 -4.65818,14.34909 2.54545,14.788 1.51273,0.092 7.89455,-1.59163 5.89091,-4.22436 -1.02545,-1.34437 -3.13454,1.56509 -4.07636,1.95163 -3.45091,1.41382 -5.67637,-2.14 -5.81455,-5.08727 m 16.36364,-5.81818 c -0.27273,-1.632 -2.13455,-2.44436 -2.49091,-0.34218 -0.56,3.29236 -0.11636,7.18327 -0.0545,10.524 0.0182,0.87091 0.20727,3.21491 1.70909,2.48145 0.97454,-0.47454 0.82909,-1.96 0.83636,-2.84509 0.0145,-2.34145 -0.74545,-10.95563 3.99273,-9.57745 3.31636,0.96363 2.18545,7.024 2.18909,9.57745 0,0.82618 -0.2,3.39055 1.36,2.91964 1.15273,-0.34727 0.82182,-2.39709 0.82182,-3.28327 0,-2.72764 -0.6,-9.20328 3.63636,-9.31746 3.98182,-0.10764 2.90545,7.27709 2.90909,9.68109 0,0.75673 -0.04,3.89164 1.60727,2.80437 1.2,-0.79237 0.57455,-4.46 0.57455,-5.71346 0,-2.09564 0.49454,-4.97709 -0.48,-6.90254 -1.95636,-3.868 -6.34546,-1.79055 -8.61091,0.35709 -1.91273,-3.58 -5.45455,-2.73855 -8,-0.36364 m 31.27273,-1.98836 c -9.36,2.23054 -4.32364,19.73527 5.05818,14.55091 0.92364,-0.51019 3.56727,-3.164 1.73454,-4.08 -1.24,-0.62146 -2.11636,1.28 -2.86909,1.90545 -1.56363,1.30436 -3.61454,0.77818 -4.93091,-0.61818 -2.52,-2.67164 -1.74181,-10.12982 2.97819,-9.79237 1.52363,0.10873 3.42909,3.32291 4.72363,2.46328 1.09455,-0.72618 -0.0291,-2.45237 -0.63636,-3.08618 -1.49455,-1.55891 -4.04,-1.82328 -6.05818,-1.34291 m 19.63636,5.62472 c -2.41454,0 -5.09818,-0.16 -7.26545,1.12328 -2.73819,1.61963 -3.48,6.13818 -0.35637,7.80145 2.49455,1.32727 5.6,0.34364 7.62182,-1.28836 0.30546,0.82691 1.58182,2.55163 2.31273,0.93163 0.39636,-0.87745 -0.0764,-2.18909 -0.11636,-3.11345 -0.11637,-2.63927 0.92,-7.15091 -0.64728,-9.41527 -1.56363,-2.25964 -5.42909,-2.27128 -7.73091,-1.31819 -1.09091,0.45273 -3.11636,1.8291 -2.40363,3.29746 0.82181,1.68909 2.76,-0.59491 3.50909,-1.09055 2.68363,-1.77309 4.98545,0.29964 5.07636,3.072 m 22.90909,2.18182 c 2.01455,0 8.87273,1.07309 10.17091,-0.58291 0.77455,-0.98654 0.14182,-2.79891 -0.32363,-3.78072 -1.4691,-3.10146 -5.2291,-4.57637 -8.39273,-3.06437 -6.36364,3.04218 -4.65818,14.34909 2.54545,14.788 1.51273,0.092 7.89455,-1.59163 5.89091,-4.22436 -1.02545,-1.34437 -3.13454,1.56509 -4.07636,1.95163 -3.45091,1.41382 -5.67637,-2.14 -5.81455,-5.08727 m 17.81818,-7.80654 c -9.36,2.23054 -4.32363,19.73527 5.05819,14.55091 0.92363,-0.51019 3.56727,-3.164 1.73454,-4.08 -1.24,-0.62146 -2.11636,1.28 -2.86909,1.90545 -1.56364,1.30436 -3.61454,0.77818 -4.93091,-0.61818 -2.52,-2.67164 -1.74182,-10.12982 2.97818,-9.79237 1.52364,0.10873 3.42909,3.32291 4.72364,2.46328 1.09455,-0.72618 -0.0291,-2.45237 -0.63636,-3.08618 -1.49455,-1.55891 -4.04,-1.82328 -6.05819,-1.34291 m 14.9091,3.6e-4 c -8.40728,2.04327 -5.5491,17.27491 3.63636,15.06145 8.55273,-2.06145 5.70909,-17.332 -3.63636,-15.06145 m 26.90909,0 c -8.40728,2.04327 -5.54909,17.27491 3.63636,15.06145 8.55273,-2.06145 5.70909,-17.332 -3.63636,-15.06145 m 36.36363,-3.6e-4 c -9.36,2.23054 -4.32363,19.73527 5.05819,14.55091 0.92363,-0.51019 3.56727,-3.164 1.73454,-4.08 -1.24,-0.62146 -2.11636,1.28 -2.86909,1.90545 -1.56364,1.30436 -3.61454,0.77818 -4.93091,-0.61818 -2.52,-2.67164 -1.74182,-10.12982 2.97818,-9.79237 1.52364,0.10873 3.42909,3.32291 4.72364,2.46328 1.09455,-0.72618 -0.0291,-2.45237 -0.63636,-3.08618 -1.49455,-1.55891 -4.04,-1.82328 -6.05819,-1.34291 m 69.81819,0 c -3.12,0.74472 -5.01455,4.48945 -2.13091,6.84327 1.65818,1.35164 3.90182,1.17673 5.76,2.04327 0.87273,0.40618 1.98545,1.21637 1.73818,2.33273 -1.23636,5.58 -7.41091,-1.59418 -8.77091,-0.48655 -1.12,0.91564 0.50909,2.81055 1.25818,3.36364 1.82909,1.34436 4.77818,1.43564 6.87273,0.79418 3.10182,-0.94982 4.58182,-5.016 1.77818,-7.26218 -1.54182,-1.23491 -3.63273,-1.168 -5.41454,-1.81564 -0.87637,-0.32 -1.94909,-0.916 -1.94909,-1.99672 0,-4.71637 6.65818,0.57963 7.54545,-0.0407 1.13091,-0.79418 -0.2,-2.37891 -0.90909,-2.88873 -1.60727,-1.156 -3.89091,-1.33673 -5.77818,-0.88654 m 20.36363,2.352 c -0.51272,-1.33273 -2.40363,-3.35237 -2.85454,-0.70582 -0.54546,3.19782 -0.0764,6.91563 -0.0546,10.16036 0.007,0.87782 0.0582,3.65091 1.70909,2.84509 1.06182,-0.51782 0.83273,-2.256 0.83637,-3.20872 0.007,-2.94219 -0.39273,-10.29964 4.72727,-9.32291 4.04364,0.77163 2.31636,7.93745 2.56727,10.77563 0.0909,1.03855 1.11637,2.81237 2.14909,1.33382 1.44728,-2.06982 0.84,-10.59673 -0.60727,-12.56654 -2.12727,-2.88982 -6.79273,-2.21528 -8.47273,0.68909 m 23.27273,9.81818 h 0.36364 c -0.0291,3.32254 -1.30182,7.236 -5.45455,6.50945 -1.05818,-0.18509 -3.54545,-2.21563 -4.45454,-1.17818 -0.84364,0.96509 0.86181,2.13637 1.54545,2.51709 2.12364,1.17746 5.07637,1.17164 7.26909,0.16255 4.76364,-2.19527 3.27637,-10.34255 3.27637,-14.55637 0,-2.26945 0.74545,-5.22654 -2.18182,-5.45454 v 2.18182 c -1.07273,-1.016 -2.14546,-2.06655 -3.63637,-2.40182 -7.04363,-1.58327 -9.52727,8.51054 -5.67636,12.908 2.32727,2.65636 7.33091,2.60364 8.94909,-0.688 M 350.62289,311.60975 c -0.86182,0.64254 -0.58182,2.33054 -0.58182,3.25563 0,2.90037 -0.12,5.82946 0.007,8.72691 0.0364,0.85746 0.36364,2.77127 1.70182,2.11818 1.06182,-0.51782 0.83273,-2.256 0.83637,-3.20872 0.007,-3.10946 0.26181,-6.35128 -0.0218,-9.44764 -0.0836,-0.94327 -0.80364,-2.29309 -1.94182,-1.44436 m 32,0 c -0.86182,0.64254 -0.58182,2.33054 -0.58182,3.25563 0,2.90037 -0.12,5.82946 0.007,8.72691 0.0364,0.85746 0.36364,2.77127 1.70182,2.11818 1.06182,-0.51782 0.83273,-2.256 0.83637,-3.20872 0.007,-3.10946 0.26181,-6.35128 -0.0218,-9.44764 -0.0836,-0.94327 -0.80364,-2.29309 -1.94182,-1.44436 m 117.09091,0 c -0.86182,0.64254 -0.58182,2.33054 -0.58182,3.25563 0,2.90037 -0.12,5.82946 0.007,8.72691 0.0364,0.85746 0.36363,2.77127 1.70181,2.11818 1.06182,-0.51782 0.83273,-2.256 0.83637,-3.20872 0.007,-3.10946 0.26182,-6.35128 -0.0218,-9.44764 -0.0836,-0.94327 -0.80364,-2.29309 -1.94182,-1.44436 m 128.50909,8.71018 c 1.35637,1.04618 3.61819,5.75527 5.41455,5.48327 2.66182,-0.40327 -2.64364,-6.15818 -2.73818,-7.30145 -0.20364,-2.404 3.34909,-3.76473 3.28,-6.12764 -0.04,-1.36 -1.56364,-0.864 -2.20364,-0.30036 -1.30545,1.15127 -2.40727,3.00509 -3.02545,4.60981 -1.28728,-1.51127 -2.30546,-3.64872 -3.88,-4.86981 -0.85091,-0.66364 -2.29819,-0.46873 -1.97819,0.89127 0.48728,2.07163 3.19637,3.312 3.47637,5.43309 0.32,2.43818 -3.44727,4.10182 -3.63637,6.524 -0.10545,1.34764 1.12364,1.29091 1.9091,0.62618 1.43636,-1.20873 2.66545,-3.26291 3.38181,-4.96836 m 9.67273,-8.71018 c -0.86182,0.64254 -0.58182,2.33054 -0.58182,3.25563 0,2.90037 -0.12,5.82946 0.007,8.72691 0.0364,0.85746 0.36363,2.77127 1.70181,2.11818 1.06182,-0.51782 0.83273,-2.256 0.83637,-3.20872 0.007,-3.10946 0.26182,-6.35128 -0.0218,-9.44764 -0.0836,-0.94327 -0.80364,-2.29309 -1.94182,-1.44436 m 21.09091,0 c -0.86182,0.64254 -0.58182,2.33054 -0.58182,3.25563 0,2.90037 -0.12,5.82946 0.007,8.72691 0.0364,0.85746 0.36363,2.77127 1.70181,2.11818 1.06182,-0.51782 0.83273,-2.256 0.83637,-3.20872 0.007,-3.10946 0.26182,-6.35128 -0.0218,-9.44764 -0.0836,-0.94327 -0.80364,-2.29309 -1.94182,-1.44436 m 21.96364,11.25563 c -0.55637,-1.71418 -1.17091,-3.40218 -1.8,-5.09091 -0.65818,-1.76691 -1.13091,-4.19236 -2.28,-5.70218 -0.78182,-1.02218 -2.33091,-0.82909 -2.21818,0.63273 0.33818,4.37418 5.50545,9.03673 4.8,13.43309 -0.61091,3.80618 -3.65819,1.98473 -5.01455,3.85455 -0.59636,0.82109 0.38545,1.54545 1.08,1.75418 5.90182,1.77563 8.42182,-10.17673 9.94182,-13.97237 0.46182,-1.15636 2.88363,-5.14363 1.45091,-6.15054 -1.16728,-0.81891 -2.01091,1.00036 -2.33455,1.78872 -1.28727,3.11564 -2.26182,6.37564 -3.62545,9.45273 m 27.63636,0.72727 h 0.36364 c 0.0364,1.12037 1.35636,3.66655 2.06545,1.37019 1.19637,-3.86873 0.11637,-9.67637 0.11637,-13.73382 -4.05455,0.316 -0.97819,9.51236 -4.73455,12.17527 -5.48364,3.89237 -4.68727,-6.76509 -4.72,-9.26618 -0.0145,-0.93855 0.0218,-2.92946 -1.44,-2.73964 -1.70182,0.22109 -1.10545,3.76328 -1.10545,4.92146 0,2.47054 -0.53455,5.75818 0.82909,7.96182 1.93818,3.13127 7.13818,2.33527 8.62545,-0.6891 m 21.30909,-11.9829 c -0.86182,0.64254 -0.58182,2.33054 -0.58182,3.25563 0,2.90037 -0.12,5.82946 0.007,8.72691 0.0364,0.85746 0.36363,2.77127 1.70182,2.11818 1.06181,-0.51782 0.83272,-2.256 0.83636,-3.20872 0.007,-3.10946 0.26182,-6.35128 -0.0218,-9.44764 -0.0836,-0.94327 -0.80364,-2.29309 -1.94182,-1.44436 m -401.30909,5.43745 h -8.36364 c 1.30291,-5.42036 7.06036,-5.42182 8.36364,0 m 81.81818,-4.14364 c 5.88,0.0415 5.76727,10.86 0,11.00255 -5.88727,0.14545 -5.86182,-11.044 0,-11.00255 m 60,4.14364 h -8.36364 c 1.30182,-5.42036 7.06182,-5.42182 8.36364,0 m 90.18182,0 h -8.36364 c 1.30182,-5.42036 7.06182,-5.42182 8.36364,0 m 26.54545,-4.088 c 5.89091,0.34618 5.29455,11.79964 -0.72727,11.31564 -5.74182,-0.46182 -5.31273,-11.67055 0.72727,-11.31564 m 26.9091,0 c 5.8909,0.34618 5.29454,11.79964 -0.72728,11.31564 -5.74182,-0.46182 -5.31272,-11.67055 0.72728,-11.31564 m 143.63636,-0.0556 c 5.88,0.0415 5.76727,10.86 0,11.00255 -5.88727,0.14545 -5.86182,-11.044 0,-11.00255 m -419.26728,0.30146 c 6.52182,-1.836 8.08546,9.18473 2.54,10.876 -5.95963,1.81709 -7.53382,-9.47055 -2.54,-10.876 m -265.823644,1.29673 -0.72727,3.27272 -3.27273,-4 4,0.72728 m 456.727284,4 c -0.004,0.95454 0.0836,2 -0.26909,2.90763 -2.79273,7.19091 -11.58909,-1.51527 -3.00364,-2.79818 1.08,-0.16109 2.18546,-0.10945 3.27273,-0.10945 M 121.31225,356.6836 c 2.4371,-0.36 4.87019,-1.93454 7.27273,-2.04 4.04073,-0.17818 8.17564,1.48 12.36364,1.29819 10.74654,-0.46909 21.50982,-6.45746 27.63636,-15.25819 h 1.09091 c 1.97891,4.49855 5.45127,4.06546 8.72727,1.0571 4.83346,-4.43855 6.33819,-9.76291 9.45455,-15.23891 0.98982,1.18509 1.39346,2.84836 2.91455,3.55672 3.45491,1.60837 7.48218,-4.184 9.07127,-6.46582 0.98654,-1.41636 3.66618,-6.21236 5.144,-2.53818 0.93636,2.32909 0.12473,5.62728 -0.33164,7.99273 -1.47382,7.64109 -5.11527,15.19964 -10.61672,20.72727 -14.34146,14.41091 -34.14328,19.50546 -53.81782,15.56364 -5.89491,-1.18182 -15.18182,-3.60727 -18.9091,-8.65455 m -7.27272,-29.45454 -1.09091,7.63636 -2.54546,0.36364 c 0.56509,-2.912 1.38946,-5.92436 3.63637,-8 m 96.72727,3.27273 -4,3.27272 0.72727,-4 3.27273,0.72728 m -35.27273,-0.36364 c 0.97673,2.264 2.27019,4.11673 4.36364,5.45455 l -1.09091,2.18181 h -0.72727 c -1.32291,-2.00581 -3.30109,-5.14836 -2.54546,-7.63636 m -38.54545,20 1.81818,2.90909 -5.09091,-0.36364 z"
       id="path123" />
  </g>
</svg>
